<?xml version="1.0" encoding="UTF-8"?>
<svg xmlns="http://www.w3.org/2000/svg" xmlns:xlink="http://www.w3.org/1999/xlink" width="12px" height="12px" viewBox="0 0 12 12" version="1.1">
<g id="surface1">
<path style=" stroke:none;fill-rule:nonzero;fill:rgb(0%,0%,0%);fill-opacity:1;" d="M 0.523438 10.144531 C -0.628906 8.113281 0.15625 4.925781 2.539062 2.539062 C 5.25 -0.167969 8.992188 -0.8125 10.902344 1.097656 C 10.90625 1.101562 10.90625 1.105469 10.910156 1.105469 C 10.527344 2.21875 9.308594 4.585938 5.65625 5.867188 C 2.3125 7.042969 1.023438 8.90625 0.523438 10.144531 Z M 11.441406 1.792969 C 11.152344 2.46875 10.648438 3.355469 9.777344 4.222656 C 8.90625 5.097656 7.664062 5.953125 5.90625 6.570312 C 2.335938 7.820312 1.339844 9.871094 1.0625 10.863281 C 1.074219 10.875 1.085938 10.890625 1.097656 10.902344 C 3.011719 12.8125 6.753906 12.167969 9.460938 9.460938 C 11.871094 7.050781 12.644531 3.824219 11.441406 1.792969 Z M 11.441406 1.792969 "/>
</g>
</svg>
