<?xml version="1.0" encoding="UTF-8"?>
<svg xmlns="http://www.w3.org/2000/svg" xmlns:xlink="http://www.w3.org/1999/xlink" width="16px" height="16px" viewBox="0 0 16 16" version="1.1">
<g id="surface1">
<path style=" stroke:none;fill-rule:nonzero;fill:rgb(0%,0%,0%);fill-opacity:1;" d="M 0.699219 13.527344 C -0.835938 10.816406 0.207031 6.566406 3.386719 3.386719 C 6.996094 -0.222656 11.988281 -1.082031 14.539062 1.464844 C 14.539062 1.46875 14.542969 1.472656 14.546875 1.476562 C 14.039062 2.960938 12.414062 6.117188 7.542969 7.824219 C 3.085938 9.386719 1.363281 11.875 0.699219 13.527344 Z M 15.253906 2.394531 C 14.867188 3.292969 14.195312 4.472656 13.039062 5.628906 C 11.871094 6.792969 10.21875 7.9375 7.875 8.761719 C 3.117188 10.429688 1.785156 13.160156 1.414062 14.484375 C 1.433594 14.5 1.449219 14.519531 1.464844 14.539062 C 4.015625 17.085938 9.003906 16.226562 12.613281 12.613281 C 15.828125 9.402344 16.859375 5.097656 15.253906 2.394531 Z M 15.253906 2.394531 "/>
</g>
</svg>
