<svg xmlns="http://www.w3.org/2000/svg" xmlns:xlink="http://www.w3.org/1999/xlink" version="1.1" x="0px" y="-1px" width="40" height="40" viewBox="0 0 512 640"  xml:space="preserve"><g><path fill="#B61C07" d="M256,0C139.167,0,44.467,94.708,44.467,211.533C44.467,372.184,256,512,256,512s211.533-139.816,211.533-300.467   C467.533,94.708,372.833,0,256,0z M256,375.941c-90.8,0-164.4-73.6-164.4-164.408c0-90.8,73.601-164.408,164.4-164.408   s164.417,73.608,164.417,164.408C420.417,302.342,346.8,375.941,256,375.941z"/><path d="M221.333,247.829h68c7.492-4.729,13.926-10.983,18.892-18.316c12.867-5.15,26.708-11.35,34.867-17.013   c16.8-11.658,12.883-41.992-9.476-46.771c-3.059-0.65-5.941-0.958-8.675-0.958c-2.024,0-3.967,0.17-5.825,0.492v-15.567h-10.024   H201.575h-10.034v44.163C191.542,216.583,203.441,236.533,221.333,247.829z M319.116,193.858v-13.454   c1.834-0.612,3.759-0.913,5.825-0.913c1.741,0,3.634,0.212,5.601,0.633c5.641,1.208,7.383,5.888,7.925,8.571   c0.8,3.975-0.059,9.138-3.767,11.708c-4.209,2.917-10.509,6.154-17.592,9.358C318.425,204.675,319.116,199.35,319.116,193.858z"/><polygon points="157.2,267.459 196.45,267.459 216.083,277.267 294.592,277.267 314.208,267.459 353.467,267.459 353.467,257.642    157.2,257.642  "/></g></svg>