<?xml version="1.0" encoding="UTF-8"?>
<svg width="24px" height="18px" viewBox="0 0 24 18" version="1.1" xmlns="http://www.w3.org/2000/svg" xmlns:xlink="http://www.w3.org/1999/xlink">
    <!-- Generator: Sketch 52.2 (67145) - http://www.bohemiancoding.com/sketch -->
    <title>Group 2</title>
    <desc>Created with Sketch.</desc>
    <g id="Page-1" stroke="none" stroke-width="1" fill="none" fill-rule="evenodd">
        <g id="iPhone-XS-Max-Copy-2" transform="translate(-47.000000, -362.000000)" fill="#EEEEEE">
            <g id="Group-2" transform="translate(47.000000, 362.000000)">
                <path d="M16.2180948,7.95220878 C15.2729772,12.0485223 12.5913854,14.4727856 10,15.3800509 C10.4141296,16.1783606 10.9881707,16.842571 11.7303238,17.2993466 C14.7850423,19.2060706 19.4450256,17.0877212 22.1471189,12.5639663 C24.81846,8.09468925 24.5683421,2.95282055 21.6099805,1 C19.8714561,1.85907342 17.1734631,3.82237047 16.2180948,7.95220878" id="Fill-278"></path>
                <path d="M14.8915858,6.98067707 C15.7938872,3.03842942 18.3183481,1.12648012 20,0.263348258 C17.0848723,-0.769145173 13.1603569,1.30196319 10.7945424,5.29114236 C9.00778728,8.29680012 8.57349275,11.608533 9.41035253,14 C11.7444378,12.9838306 14.0388614,10.6841861 14.8915858,6.98067707" id="Fill-279"></path>
                <path d="M7.00941031,15.6301309 C7.436426,15.387896 7.75939725,15.0348079 8,14.6098704 C6.51953445,14.1315592 4.98487908,12.8505883 4.44731619,10.6786857 C3.90325051,8.49446606 2.35775719,7.45573003 1.3671675,7 C-0.325722103,8.03257751 -0.466615604,10.7566935 1.0572018,13.1215629 C2.60269512,15.515172 5.26449849,16.6380744 7.00941031,15.6301309" id="Fill-280"></path>
                <path d="M4.78372886,10.9855342 C5.25001845,13.1071578 6.5027965,14.417255 7.77558698,15 C8.2338716,13.6337867 7.99372246,11.7409445 7.02311965,10.0229258 C5.73431923,7.74374522 3.58898685,6.56098864 2,7.15020861 C2.91857049,7.64230442 4.29542559,8.73657009 4.78372886,10.9855342" id="Fill-281"></path>
            </g>
        </g>
    </g>
</svg>