<?xml version="1.0" encoding="utf-8"?>
<!-- Generator: Adobe Illustrator 23.0.2, SVG Export Plug-In . SVG Version: 6.00 Build 0)  -->
<!DOCTYPE svg PUBLIC "-//W3C//DTD SVG 1.1//EN" "http://www.w3.org/Graphics/SVG/1.1/DTD/svg11.dtd" [
	<!ENTITY ns_extend "http://ns.adobe.com/Extensibility/1.0/">
	<!ENTITY ns_ai "http://ns.adobe.com/AdobeIllustrator/10.0/">
	<!ENTITY ns_graphs "http://ns.adobe.com/Graphs/1.0/">
	<!ENTITY ns_vars "http://ns.adobe.com/Variables/1.0/">
	<!ENTITY ns_imrep "http://ns.adobe.com/ImageReplacement/1.0/">
	<!ENTITY ns_sfw "http://ns.adobe.com/SaveForWeb/1.0/">
	<!ENTITY ns_custom "http://ns.adobe.com/GenericCustomNamespace/1.0/">
	<!ENTITY ns_adobe_xpath "http://ns.adobe.com/XPath/1.0/">
]>
<svg version="1.1" id="Layer_1" xmlns:x="&ns_extend;" xmlns:i="&ns_ai;" xmlns:graph="&ns_graphs;"
	 xmlns="http://www.w3.org/2000/svg" xmlns:xlink="http://www.w3.org/1999/xlink" x="0px" y="0px" viewBox="0 0 24 18"
	 style="enable-background:new 0 0 24 18;" xml:space="preserve">
<style type="text/css">
	.st0{fill-rule:evenodd;clip-rule:evenodd;fill:#A57C52;}
</style>
<metadata>
	<sfw  xmlns="&ns_sfw;">
		<slices></slices>
		<sliceSourceBounds  bottomLeftOrigin="true" height="18" width="24" x="0" y="0"></sliceSourceBounds>
	</sfw>
</metadata>
<title>Group 2</title>
<desc>Created with Sketch.</desc>
<g id="Page-1">
	<g id="iPhone-XS-Max-Copy-2" transform="translate(-47.000000, -362.000000)">
		<g id="Group-2" transform="translate(47.000000, 362.000000)">
			<path id="Fill-278" class="st0" d="M16.2,8c-0.9,4.1-3.6,6.5-6.2,7.4c0.4,0.8,1,1.5,1.7,1.9c3.1,1.9,7.7-0.2,10.4-4.7
				S24.6,3,21.6,1C19.9,1.9,17.2,3.8,16.2,8"/>
			<path id="Fill-279" class="st0" d="M14.9,7c0.9-4,3.4-5.9,5.1-6.7c-2.9-1-6.8,1-9.2,5C9,8.3,8.6,11.6,9.4,14
				C11.7,13,14,10.7,14.9,7"/>
			<path id="Fill-280" class="st0" d="M7,15.6c0.4-0.2,0.7-0.6,1-1c-1.5-0.5-3-1.8-3.6-3.9c-0.5-2.2-2-3.2-3-3.7
				c-1.7,1-1.8,3.8-0.3,6.1C2.6,15.5,5.3,16.6,7,15.6"/>
			<path id="Fill-281" class="st0" d="M4.8,11c0.5,2.1,1.7,3.4,3,4C8.2,13.6,8,11.7,7,10C5.7,7.7,3.6,6.6,2,7.2
				C2.9,7.6,4.3,8.7,4.8,11"/>
		</g>
	</g>
</g>
</svg>
